<svg width="762" height="200" viewBox="0 0 762 200" fill="none" xmlns="http://www.w3.org/2000/svg">
<g clip-path="url(#clip0_2223_123)">
<mask id="mask0_2223_123" style="mask-type:alpha" maskUnits="userSpaceOnUse" x="18" y="47" width="158" height="99">
<path d="M96.8826 47.875C53.5781 47.875 18.4727 69.8156 18.4727 96.8811C18.4727 123.946 53.5781 145.887 96.8826 145.887C140.187 145.887 175.293 123.946 175.293 96.8811C175.293 69.8156 140.187 47.875 96.8826 47.875Z" fill="white"/>
</mask>
<g mask="url(#mask0_2223_123)">
<path d="M147.114 96.8818C147.114 143.709 117.101 166.64 109.618 171.317C104.495 174.519 100.773 175.69 99.2388 176.096C98.3511 176.33 97.7382 176.43 97.3995 176.473C97.0549 176.517 96.8885 176.517 96.8821 176.517V-80.7656C54.9769 -80.7656 10.9339 -70.4056 -26.7419 -46.8582C-62.6044 -24.444 -110.169 22.9902 -110.169 96.8818H147.114ZM96.8821 176.517C96.8759 176.517 96.7095 176.517 96.3649 176.473C96.0262 176.43 95.4133 176.33 94.5256 176.096C92.9917 175.69 89.2698 174.519 84.1466 171.317C76.6627 166.64 46.6507 143.709 46.6507 96.8818H303.933C303.933 22.9902 256.369 -24.444 220.506 -46.8582C182.83 -70.4056 138.787 -80.7656 96.8821 -80.7656V176.517ZM46.6507 96.8818C46.6507 50.0553 76.6627 27.1245 84.1466 22.4471C89.2698 19.2451 92.9917 18.0735 94.5256 17.668C95.4133 17.4334 96.0262 17.334 96.3649 17.2907C96.7095 17.2467 96.8759 17.247 96.8821 17.247V274.53C138.787 274.53 182.83 264.17 220.506 240.622C256.369 218.208 303.933 170.774 303.933 96.8818H46.6507ZM96.8821 17.247C96.8885 17.247 97.0549 17.2467 97.3995 17.2907C97.7382 17.334 98.3511 17.4334 99.2388 17.668C100.773 18.0735 104.495 19.2451 109.618 22.4471C117.101 27.1245 147.114 50.0553 147.114 96.8818H-110.169C-110.169 170.774 -62.6044 218.208 -26.7419 240.622C10.9339 264.17 54.9769 274.53 96.8821 274.53V17.247Z" fill="#FF7070" fill-opacity="0.5"/>
</g>
<mask id="mask1_2223_123" style="mask-type:alpha" maskUnits="userSpaceOnUse" x="32" y="32" width="131" height="131">
<path d="M62.7944 62.7974C32.1733 93.4184 22.8646 133.756 42.0025 152.894C61.1409 172.032 101.478 162.724 132.1 132.102C162.721 101.481 172.029 61.1435 152.891 42.0055C133.753 22.8675 93.4154 32.1762 62.7944 62.7974Z" fill="white"/>
</mask>
<g mask="url(#mask1_2223_123)">
<path d="M132.965 61.9319C166.077 95.0435 161.069 132.48 159.085 141.079C157.726 146.966 155.923 150.426 155.125 151.797C154.663 152.591 154.3 153.095 154.091 153.365C153.879 153.64 153.761 153.757 153.757 153.762L-28.1695 -28.1648C-57.8009 1.46662 -81.6187 39.9355 -91.609 83.2268C-101.118 124.435 -101.211 191.609 -48.9612 243.858L132.965 61.9319ZM153.757 153.762C153.752 153.766 153.635 153.884 153.36 154.096C153.09 154.305 152.586 154.668 151.793 155.13C150.421 155.928 146.961 157.731 141.074 159.09C132.475 161.074 95.0384 166.081 61.9272 132.97L243.853 -48.9562C191.604 -101.206 124.43 -101.114 83.2217 -91.6039C39.9304 -81.6136 1.46192 -57.7961 -28.1695 -28.1648L153.757 153.762ZM61.9272 132.97C28.816 99.8587 33.823 62.4222 35.8071 53.8229C37.1659 47.9361 38.9691 44.4761 39.7671 43.1045C40.2288 42.311 40.592 41.8074 40.801 41.5371C41.0133 41.2622 41.131 41.1451 41.1355 41.1406L223.062 223.067C252.693 193.435 276.511 154.967 286.501 111.675C296.011 70.4674 296.103 3.29301 243.853 -48.9562L61.9272 132.97ZM41.1355 41.1406C41.1401 41.1361 41.2575 41.018 41.5323 40.8058C41.8023 40.5968 42.3062 40.2339 43.0997 39.7719C44.471 38.9739 47.9313 37.1706 53.8181 35.8122C62.4175 33.8277 99.8536 28.8207 132.965 61.9319L-48.9612 243.858C3.28835 296.108 70.4626 296.015 111.67 286.506C154.962 276.516 193.43 252.698 223.062 223.067L41.1355 41.1406Z" fill="#FFF970" fill-opacity="0.5"/>
</g>
<mask id="mask2_2223_123" style="mask-type:alpha" maskUnits="userSpaceOnUse" x="32" y="32" width="131" height="131">
<path d="M132.097 62.7972C101.477 32.1762 61.1388 22.8674 42.0007 42.0056C22.8626 61.1436 32.1713 101.481 62.7923 132.102C93.4133 162.723 133.751 172.032 152.889 152.894C172.027 133.756 162.718 93.4182 132.097 62.7972Z" fill="white"/>
</mask>
<g mask="url(#mask2_2223_123)">
<path d="M132.965 132.97C99.8536 166.081 62.4175 161.074 53.8181 159.09C47.9313 157.731 44.471 155.928 43.0997 155.13C42.3062 154.668 41.8026 154.305 41.5323 154.096C41.2575 153.884 41.1401 153.766 41.1355 153.762L223.062 -28.1648C193.43 -57.7961 154.962 -81.6136 111.67 -91.6039C70.4626 -101.114 3.28835 -101.206 -48.9612 -48.9565L132.965 132.97ZM41.1355 153.762C41.131 153.757 41.0133 153.64 40.801 153.365C40.592 153.094 40.2288 152.591 39.7671 151.797C38.9691 150.426 37.1659 146.966 35.8071 141.079C33.823 132.48 28.816 95.0432 61.9272 61.9319L243.853 243.858C296.103 191.609 296.011 124.435 286.501 83.2268C276.511 39.9355 252.693 1.46661 223.062 -28.1648L41.1355 153.762ZM61.9272 61.9319C95.0384 28.8207 132.475 33.8277 141.074 35.8122C146.961 37.1706 150.421 38.9739 151.793 39.7719C152.586 40.2335 153.09 40.5968 153.36 40.8058C153.635 41.018 153.752 41.1361 153.757 41.1406L-28.1695 223.067C1.46193 252.698 39.9304 276.516 83.2217 286.506C124.43 296.015 191.604 296.108 243.853 243.858L61.9272 61.9319ZM153.757 41.1406C153.761 41.1451 153.879 41.2622 154.091 41.5371C154.3 41.8074 154.664 42.311 155.125 43.1045C155.923 44.4758 157.726 47.9361 159.085 53.8229C161.069 62.4222 166.077 99.8587 132.965 132.97L-48.9612 -48.9565C-101.211 3.29305 -101.118 70.4674 -91.609 111.675C-81.6187 154.967 -57.8009 193.435 -28.1695 223.067L153.757 41.1406Z" fill="#70E5FF" fill-opacity="0.5"/>
</g>
<mask id="mask3_2223_123" style="mask-type:alpha" maskUnits="userSpaceOnUse" x="47" y="18" width="99" height="158">
<path d="M47.877 96.8826C47.877 140.187 69.8176 175.293 96.8831 175.293C123.948 175.293 145.889 140.187 145.889 96.8826C145.889 53.5781 123.948 18.4727 96.8831 18.4727C69.8176 18.4727 47.877 53.5781 47.877 96.8826Z" fill="white"/>
</mask>
<g mask="url(#mask3_2223_123)">
<path d="M96.8828 46.6517C143.709 46.6517 166.641 76.6636 171.318 84.1475C174.52 89.2707 175.691 92.9927 176.097 94.5265C176.331 95.4143 176.431 96.0272 176.474 96.3659C176.518 96.7104 176.518 96.8765 176.518 96.883H-80.7646C-80.7646 138.788 -70.4046 182.831 -46.8572 220.507C-24.4432 256.37 22.991 303.934 96.8828 303.934V46.6517ZM176.518 96.883C176.518 96.8894 176.518 97.0556 176.474 97.4001C176.431 97.7391 176.331 98.3517 176.097 99.2398C175.691 100.774 174.52 104.495 171.318 109.618C166.641 117.102 143.709 147.114 96.8828 147.114V-110.168C22.991 -110.168 -24.4432 -62.6035 -46.8572 -26.7408C-70.4046 10.935 -80.7646 54.9778 -80.7646 96.883H176.518ZM96.8828 147.114C50.0563 147.114 27.1253 117.102 22.4479 109.618C19.2459 104.495 18.0743 100.774 17.6688 99.2398C17.4342 98.352 17.3348 97.7391 17.2915 97.4001C17.2474 97.0559 17.2478 96.8894 17.2478 96.883H274.53C274.53 54.9778 264.171 10.9349 240.623 -26.7409C218.209 -62.6035 170.775 -110.168 96.8828 -110.168V147.114ZM17.2478 96.883C17.2478 96.8765 17.2474 96.7104 17.2915 96.3659C17.3348 96.0272 17.4342 95.4143 17.6688 94.5265C18.0743 92.9927 19.2459 89.2707 22.4479 84.1475C27.1253 76.6636 50.0563 46.6517 96.8828 46.6517V303.934C170.775 303.934 218.209 256.369 240.623 220.507C264.171 182.831 274.53 138.788 274.53 96.883H17.2478Z" fill="#B1EAD5" fill-opacity="0.5"/>
</g>
<mask id="mask4_2223_123" style="mask-type:alpha" maskUnits="userSpaceOnUse" x="18" y="47" width="158" height="99">
<path d="M96.8826 47.875C53.5781 47.875 18.4727 69.8156 18.4727 96.8811C18.4727 123.946 53.5781 145.887 96.8826 145.887C140.187 145.887 175.293 123.946 175.293 96.8811C175.293 69.8156 140.187 47.875 96.8826 47.875Z" fill="white"/>
</mask>
<g mask="url(#mask4_2223_123)">
<path d="M147.114 96.8818C147.114 143.709 117.101 166.64 109.618 171.317C104.495 174.519 100.773 175.69 99.2388 176.096C98.3511 176.33 97.7382 176.43 97.3995 176.473C97.0549 176.517 96.8885 176.517 96.8821 176.517V-80.7656C54.9769 -80.7656 10.9339 -70.4056 -26.7419 -46.8582C-62.6044 -24.444 -110.169 22.9902 -110.169 96.8818H147.114ZM96.8821 176.517C96.8759 176.517 96.7095 176.517 96.3649 176.473C96.0262 176.43 95.4133 176.33 94.5256 176.096C92.9917 175.69 89.2698 174.519 84.1466 171.317C76.6627 166.64 46.6507 143.709 46.6507 96.8818H303.933C303.933 22.9902 256.369 -24.444 220.506 -46.8582C182.83 -70.4056 138.787 -80.7656 96.8821 -80.7656V176.517ZM46.6507 96.8818C46.6507 50.0553 76.6627 27.1245 84.1466 22.4471C89.2698 19.2451 92.9917 18.0735 94.5256 17.668C95.4133 17.4334 96.0262 17.334 96.3649 17.2907C96.7095 17.2467 96.8759 17.247 96.8821 17.247V274.53C138.787 274.53 182.83 264.17 220.506 240.622C256.369 218.208 303.933 170.774 303.933 96.8818H46.6507ZM96.8821 17.247C96.8885 17.247 97.0549 17.2467 97.3995 17.2907C97.7382 17.334 98.3511 17.4334 99.2388 17.668C100.773 18.0735 104.495 19.2451 109.618 22.4471C117.101 27.1245 147.114 50.0553 147.114 96.8818H-110.169C-110.169 170.774 -62.6044 218.208 -26.7419 240.622C10.9339 264.17 54.9769 274.53 96.8821 274.53V17.247Z" fill="#FF7070" fill-opacity="0.5"/>
</g>
<mask id="mask5_2223_123" style="mask-type:alpha" maskUnits="userSpaceOnUse" x="32" y="32" width="131" height="131">
<path d="M62.7944 62.7974C32.1733 93.4184 22.8646 133.756 42.0025 152.894C61.1409 172.032 101.478 162.724 132.1 132.102C162.721 101.481 172.029 61.1435 152.891 42.0055C133.753 22.8675 93.4154 32.1762 62.7944 62.7974Z" fill="white"/>
</mask>
<g mask="url(#mask5_2223_123)">
<path d="M132.965 61.9319C166.077 95.0435 161.069 132.48 159.085 141.079C157.726 146.966 155.923 150.426 155.125 151.797C154.663 152.591 154.3 153.095 154.091 153.365C153.879 153.64 153.761 153.757 153.757 153.762L-28.1695 -28.1648C-57.8009 1.46662 -81.6187 39.9355 -91.609 83.2268C-101.118 124.435 -101.211 191.609 -48.9612 243.858L132.965 61.9319ZM153.757 153.762C153.752 153.766 153.635 153.884 153.36 154.096C153.09 154.305 152.586 154.668 151.793 155.13C150.421 155.928 146.961 157.731 141.074 159.09C132.475 161.074 95.0384 166.081 61.9272 132.97L243.853 -48.9562C191.604 -101.206 124.43 -101.114 83.2217 -91.6039C39.9304 -81.6136 1.46192 -57.7961 -28.1695 -28.1648L153.757 153.762ZM61.9272 132.97C28.816 99.8587 33.823 62.4222 35.8071 53.8229C37.1659 47.9361 38.9691 44.4761 39.7671 43.1045C40.2288 42.311 40.592 41.8074 40.801 41.5371C41.0133 41.2622 41.131 41.1451 41.1355 41.1406L223.062 223.067C252.693 193.435 276.511 154.967 286.501 111.675C296.011 70.4674 296.103 3.29301 243.853 -48.9562L61.9272 132.97ZM41.1355 41.1406C41.1401 41.1361 41.2575 41.018 41.5323 40.8058C41.8023 40.5968 42.3062 40.2339 43.0997 39.7719C44.471 38.9739 47.9313 37.1706 53.8181 35.8122C62.4175 33.8277 99.8536 28.8207 132.965 61.9319L-48.9612 243.858C3.28835 296.108 70.4626 296.015 111.67 286.506C154.962 276.516 193.43 252.698 223.062 223.067L41.1355 41.1406Z" fill="#FFF970" fill-opacity="0.5"/>
</g>
<mask id="mask6_2223_123" style="mask-type:alpha" maskUnits="userSpaceOnUse" x="32" y="32" width="131" height="131">
<path d="M132.097 62.7972C101.477 32.1762 61.1388 22.8674 42.0007 42.0056C22.8626 61.1436 32.1713 101.481 62.7923 132.102C93.4133 162.723 133.751 172.032 152.889 152.894C172.027 133.756 162.718 93.4182 132.097 62.7972Z" fill="white"/>
</mask>
<g mask="url(#mask6_2223_123)">
<path d="M132.965 132.97C99.8536 166.081 62.4175 161.074 53.8181 159.09C47.9313 157.731 44.471 155.928 43.0997 155.13C42.3062 154.668 41.8026 154.305 41.5323 154.096C41.2575 153.884 41.1401 153.766 41.1355 153.762L223.062 -28.1648C193.43 -57.7961 154.962 -81.6136 111.67 -91.6039C70.4626 -101.114 3.28835 -101.206 -48.9612 -48.9565L132.965 132.97ZM41.1355 153.762C41.131 153.757 41.0133 153.64 40.801 153.365C40.592 153.094 40.2288 152.591 39.7671 151.797C38.9691 150.426 37.1659 146.966 35.8071 141.079C33.823 132.48 28.816 95.0432 61.9272 61.9319L243.853 243.858C296.103 191.609 296.011 124.435 286.501 83.2268C276.511 39.9355 252.693 1.46661 223.062 -28.1648L41.1355 153.762ZM61.9272 61.9319C95.0384 28.8207 132.475 33.8277 141.074 35.8122C146.961 37.1706 150.421 38.9739 151.793 39.7719C152.586 40.2335 153.09 40.5968 153.36 40.8058C153.635 41.018 153.752 41.1361 153.757 41.1406L-28.1695 223.067C1.46193 252.698 39.9304 276.516 83.2217 286.506C124.43 296.015 191.604 296.108 243.853 243.858L61.9272 61.9319ZM153.757 41.1406C153.761 41.1451 153.879 41.2622 154.091 41.5371C154.3 41.8074 154.664 42.311 155.125 43.1045C155.923 44.4758 157.726 47.9361 159.085 53.8229C161.069 62.4222 166.077 99.8587 132.965 132.97L-48.9612 -48.9565C-101.211 3.29305 -101.118 70.4674 -91.609 111.675C-81.6187 154.967 -57.8009 193.435 -28.1695 223.067L153.757 41.1406Z" fill="#70E5FF" fill-opacity="0.5"/>
</g>
<mask id="mask7_2223_123" style="mask-type:alpha" maskUnits="userSpaceOnUse" x="47" y="18" width="99" height="158">
<path d="M47.877 96.8826C47.877 140.187 69.8176 175.293 96.8831 175.293C123.948 175.293 145.889 140.187 145.889 96.8826C145.889 53.5781 123.948 18.4727 96.8831 18.4727C69.8176 18.4727 47.877 53.5781 47.877 96.8826Z" fill="white"/>
</mask>
<g mask="url(#mask7_2223_123)">
<path d="M96.8828 46.6517C143.709 46.6517 166.641 76.6636 171.318 84.1475C174.52 89.2707 175.691 92.9927 176.097 94.5265C176.331 95.4143 176.431 96.0272 176.474 96.3659C176.518 96.7104 176.518 96.8765 176.518 96.883H-80.7646C-80.7646 138.788 -70.4046 182.831 -46.8572 220.507C-24.4432 256.37 22.991 303.934 96.8828 303.934V46.6517ZM176.518 96.883C176.518 96.8894 176.518 97.0556 176.474 97.4001C176.431 97.7391 176.331 98.3517 176.097 99.2398C175.691 100.774 174.52 104.495 171.318 109.618C166.641 117.102 143.709 147.114 96.8828 147.114V-110.168C22.991 -110.168 -24.4432 -62.6035 -46.8572 -26.7408C-70.4046 10.935 -80.7646 54.9778 -80.7646 96.883H176.518ZM96.8828 147.114C50.0563 147.114 27.1253 117.102 22.4479 109.618C19.2459 104.495 18.0743 100.774 17.6688 99.2398C17.4342 98.352 17.3348 97.7391 17.2915 97.4001C17.2474 97.0559 17.2478 96.8894 17.2478 96.883H274.53C274.53 54.9778 264.171 10.9349 240.623 -26.7409C218.209 -62.6035 170.775 -110.168 96.8828 -110.168V147.114ZM17.2478 96.883C17.2478 96.8765 17.2474 96.7104 17.2915 96.3659C17.3348 96.0272 17.4342 95.4143 17.6688 94.5265C18.0743 92.9927 19.2459 89.2707 22.4479 84.1475C27.1253 76.6636 50.0563 46.6517 96.8828 46.6517V303.934C170.775 303.934 218.209 256.369 240.623 220.507C264.171 182.831 274.53 138.788 274.53 96.883H17.2478Z" fill="#B1EAD5" fill-opacity="0.5"/>
</g>
<mask id="mask8_2223_123" style="mask-type:alpha" maskUnits="userSpaceOnUse" x="18" y="47" width="158" height="99">
<path d="M96.8826 47.875C53.5781 47.875 18.4727 69.8156 18.4727 96.8811C18.4727 123.946 53.5781 145.887 96.8826 145.887C140.187 145.887 175.293 123.946 175.293 96.8811C175.293 69.8156 140.187 47.875 96.8826 47.875Z" fill="white"/>
</mask>
<g mask="url(#mask8_2223_123)">
<path d="M147.114 96.8818C147.114 143.709 117.101 166.64 109.618 171.317C104.495 174.519 100.773 175.69 99.2388 176.096C98.3511 176.33 97.7382 176.43 97.3995 176.473C97.0549 176.517 96.8885 176.517 96.8821 176.517V-80.7656C54.9769 -80.7656 10.9339 -70.4056 -26.7419 -46.8582C-62.6044 -24.444 -110.169 22.9902 -110.169 96.8818H147.114ZM96.8821 176.517C96.8759 176.517 96.7095 176.517 96.3649 176.473C96.0262 176.43 95.4133 176.33 94.5256 176.096C92.9917 175.69 89.2698 174.519 84.1466 171.317C76.6627 166.64 46.6507 143.709 46.6507 96.8818H303.933C303.933 22.9902 256.369 -24.444 220.506 -46.8582C182.83 -70.4056 138.787 -80.7656 96.8821 -80.7656V176.517ZM46.6507 96.8818C46.6507 50.0553 76.6627 27.1245 84.1466 22.4471C89.2698 19.2451 92.9917 18.0735 94.5256 17.668C95.4133 17.4334 96.0262 17.334 96.3649 17.2907C96.7095 17.2467 96.8759 17.247 96.8821 17.247V274.53C138.787 274.53 182.83 264.17 220.506 240.622C256.369 218.208 303.933 170.774 303.933 96.8818H46.6507ZM96.8821 17.247C96.8885 17.247 97.0549 17.2467 97.3995 17.2907C97.7382 17.334 98.3511 17.4334 99.2388 17.668C100.773 18.0735 104.495 19.2451 109.618 22.4471C117.101 27.1245 147.114 50.0553 147.114 96.8818H-110.169C-110.169 170.774 -62.6044 218.208 -26.7419 240.622C10.9339 264.17 54.9769 274.53 96.8821 274.53V17.247Z" fill="#FF7070" fill-opacity="0.5"/>
</g>
<mask id="mask9_2223_123" style="mask-type:alpha" maskUnits="userSpaceOnUse" x="32" y="32" width="131" height="131">
<path d="M62.7944 62.7974C32.1733 93.4184 22.8646 133.756 42.0025 152.894C61.1409 172.032 101.478 162.724 132.1 132.102C162.721 101.481 172.029 61.1435 152.891 42.0055C133.753 22.8675 93.4154 32.1762 62.7944 62.7974Z" fill="white"/>
</mask>
<g mask="url(#mask9_2223_123)">
<path d="M132.965 61.9319C166.077 95.0435 161.069 132.48 159.085 141.079C157.726 146.966 155.923 150.426 155.125 151.797C154.663 152.591 154.3 153.095 154.091 153.365C153.879 153.64 153.761 153.757 153.757 153.762L-28.1695 -28.1648C-57.8009 1.46662 -81.6187 39.9355 -91.609 83.2268C-101.118 124.435 -101.211 191.609 -48.9612 243.858L132.965 61.9319ZM153.757 153.762C153.752 153.766 153.635 153.884 153.36 154.096C153.09 154.305 152.586 154.668 151.793 155.13C150.421 155.928 146.961 157.731 141.074 159.09C132.475 161.074 95.0384 166.081 61.9272 132.97L243.853 -48.9562C191.604 -101.206 124.43 -101.114 83.2217 -91.6039C39.9304 -81.6136 1.46192 -57.7961 -28.1695 -28.1648L153.757 153.762ZM61.9272 132.97C28.816 99.8587 33.823 62.4222 35.8071 53.8229C37.1659 47.9361 38.9691 44.4761 39.7671 43.1045C40.2288 42.311 40.592 41.8074 40.801 41.5371C41.0133 41.2622 41.131 41.1451 41.1355 41.1406L223.062 223.067C252.693 193.435 276.511 154.967 286.501 111.675C296.011 70.4674 296.103 3.29301 243.853 -48.9562L61.9272 132.97ZM41.1355 41.1406C41.1401 41.1361 41.2575 41.018 41.5323 40.8058C41.8023 40.5968 42.3062 40.2339 43.0997 39.7719C44.471 38.9739 47.9313 37.1706 53.8181 35.8122C62.4175 33.8277 99.8536 28.8207 132.965 61.9319L-48.9612 243.858C3.28835 296.108 70.4626 296.015 111.67 286.506C154.962 276.516 193.43 252.698 223.062 223.067L41.1355 41.1406Z" fill="#FFF970" fill-opacity="0.5"/>
</g>
<mask id="mask10_2223_123" style="mask-type:alpha" maskUnits="userSpaceOnUse" x="32" y="32" width="131" height="131">
<path d="M132.097 62.7972C101.477 32.1762 61.1388 22.8674 42.0007 42.0056C22.8626 61.1436 32.1713 101.481 62.7923 132.102C93.4133 162.723 133.751 172.032 152.889 152.894C172.027 133.756 162.718 93.4182 132.097 62.7972Z" fill="white"/>
</mask>
<g mask="url(#mask10_2223_123)">
<path d="M132.965 132.97C99.8536 166.081 62.4175 161.074 53.8181 159.09C47.9313 157.731 44.471 155.928 43.0997 155.13C42.3062 154.668 41.8026 154.305 41.5323 154.096C41.2575 153.884 41.1401 153.766 41.1355 153.762L223.062 -28.1648C193.43 -57.7961 154.962 -81.6136 111.67 -91.6039C70.4626 -101.114 3.28835 -101.206 -48.9612 -48.9565L132.965 132.97ZM41.1355 153.762C41.131 153.757 41.0133 153.64 40.801 153.365C40.592 153.094 40.2288 152.591 39.7671 151.797C38.9691 150.426 37.1659 146.966 35.8071 141.079C33.823 132.48 28.816 95.0432 61.9272 61.9319L243.853 243.858C296.103 191.609 296.011 124.435 286.501 83.2268C276.511 39.9355 252.693 1.46661 223.062 -28.1648L41.1355 153.762ZM61.9272 61.9319C95.0384 28.8207 132.475 33.8277 141.074 35.8122C146.961 37.1706 150.421 38.9739 151.793 39.7719C152.586 40.2335 153.09 40.5968 153.36 40.8058C153.635 41.018 153.752 41.1361 153.757 41.1406L-28.1695 223.067C1.46193 252.698 39.9304 276.516 83.2217 286.506C124.43 296.015 191.604 296.108 243.853 243.858L61.9272 61.9319ZM153.757 41.1406C153.761 41.1451 153.879 41.2622 154.091 41.5371C154.3 41.8074 154.664 42.311 155.125 43.1045C155.923 44.4758 157.726 47.9361 159.085 53.8229C161.069 62.4222 166.077 99.8587 132.965 132.97L-48.9612 -48.9565C-101.211 3.29305 -101.118 70.4674 -91.609 111.675C-81.6187 154.967 -57.8009 193.435 -28.1695 223.067L153.757 41.1406Z" fill="#70E5FF" fill-opacity="0.5"/>
</g>
<mask id="mask11_2223_123" style="mask-type:alpha" maskUnits="userSpaceOnUse" x="47" y="18" width="99" height="158">
<path d="M47.877 96.8826C47.877 140.187 69.8176 175.293 96.8831 175.293C123.948 175.293 145.889 140.187 145.889 96.8826C145.889 53.5781 123.948 18.4727 96.8831 18.4727C69.8176 18.4727 47.877 53.5781 47.877 96.8826Z" fill="white"/>
</mask>
<g mask="url(#mask11_2223_123)">
<path d="M96.8828 46.6517C143.709 46.6517 166.641 76.6636 171.318 84.1475C174.52 89.2707 175.691 92.9927 176.097 94.5265C176.331 95.4143 176.431 96.0272 176.474 96.3659C176.518 96.7104 176.518 96.8765 176.518 96.883H-80.7646C-80.7646 138.788 -70.4046 182.831 -46.8572 220.507C-24.4432 256.37 22.991 303.934 96.8828 303.934V46.6517ZM176.518 96.883C176.518 96.8894 176.518 97.0556 176.474 97.4001C176.431 97.7391 176.331 98.3517 176.097 99.2398C175.691 100.774 174.52 104.495 171.318 109.618C166.641 117.102 143.709 147.114 96.8828 147.114V-110.168C22.991 -110.168 -24.4432 -62.6035 -46.8572 -26.7408C-70.4046 10.935 -80.7646 54.9778 -80.7646 96.883H176.518ZM96.8828 147.114C50.0563 147.114 27.1253 117.102 22.4479 109.618C19.2459 104.495 18.0743 100.774 17.6688 99.2398C17.4342 98.352 17.3348 97.7391 17.2915 97.4001C17.2474 97.0559 17.2478 96.8894 17.2478 96.883H274.53C274.53 54.9778 264.171 10.9349 240.623 -26.7409C218.209 -62.6035 170.775 -110.168 96.8828 -110.168V147.114ZM17.2478 96.883C17.2478 96.8765 17.2474 96.7104 17.2915 96.3659C17.3348 96.0272 17.4342 95.4143 17.6688 94.5265C18.0743 92.9927 19.2459 89.2707 22.4479 84.1475C27.1253 76.6636 50.0563 46.6517 96.8828 46.6517V303.934C170.775 303.934 218.209 256.369 240.623 220.507C264.171 182.831 274.53 138.788 274.53 96.883H17.2478Z" fill="#B1EAD5" fill-opacity="0.5"/>
</g>
<mask id="mask12_2223_123" style="mask-type:alpha" maskUnits="userSpaceOnUse" x="18" y="47" width="158" height="99">
<path d="M96.8826 47.875C53.5781 47.875 18.4727 69.8156 18.4727 96.8811C18.4727 123.946 53.5781 145.887 96.8826 145.887C140.187 145.887 175.293 123.946 175.293 96.8811C175.293 69.8156 140.187 47.875 96.8826 47.875Z" fill="white"/>
</mask>
<g mask="url(#mask12_2223_123)">
<path d="M147.114 96.8818C147.114 143.709 117.101 166.64 109.618 171.317C104.495 174.519 100.773 175.69 99.2388 176.096C98.3511 176.33 97.7382 176.43 97.3995 176.473C97.0549 176.517 96.8885 176.517 96.8821 176.517V-80.7656C54.9769 -80.7656 10.9339 -70.4056 -26.7419 -46.8582C-62.6044 -24.444 -110.169 22.9902 -110.169 96.8818H147.114ZM96.8821 176.517C96.8759 176.517 96.7095 176.517 96.3649 176.473C96.0262 176.43 95.4133 176.33 94.5256 176.096C92.9917 175.69 89.2698 174.519 84.1466 171.317C76.6627 166.64 46.6507 143.709 46.6507 96.8818H303.933C303.933 22.9902 256.369 -24.444 220.506 -46.8582C182.83 -70.4056 138.787 -80.7656 96.8821 -80.7656V176.517ZM46.6507 96.8818C46.6507 50.0553 76.6627 27.1245 84.1466 22.4471C89.2698 19.2451 92.9917 18.0735 94.5256 17.668C95.4133 17.4334 96.0262 17.334 96.3649 17.2907C96.7095 17.2467 96.8759 17.247 96.8821 17.247V274.53C138.787 274.53 182.83 264.17 220.506 240.622C256.369 218.208 303.933 170.774 303.933 96.8818H46.6507ZM96.8821 17.247C96.8885 17.247 97.0549 17.2467 97.3995 17.2907C97.7382 17.334 98.3511 17.4334 99.2388 17.668C100.773 18.0735 104.495 19.2451 109.618 22.4471C117.101 27.1245 147.114 50.0553 147.114 96.8818H-110.169C-110.169 170.774 -62.6044 218.208 -26.7419 240.622C10.9339 264.17 54.9769 274.53 96.8821 274.53V17.247Z" fill="#FF7070" fill-opacity="0.5"/>
</g>
<mask id="mask13_2223_123" style="mask-type:alpha" maskUnits="userSpaceOnUse" x="32" y="32" width="131" height="131">
<path d="M62.7944 62.7974C32.1733 93.4184 22.8646 133.756 42.0025 152.894C61.1409 172.032 101.478 162.724 132.1 132.102C162.721 101.481 172.029 61.1435 152.891 42.0055C133.753 22.8675 93.4154 32.1762 62.7944 62.7974Z" fill="white"/>
</mask>
<g mask="url(#mask13_2223_123)">
<path d="M132.965 61.9319C166.077 95.0435 161.069 132.48 159.085 141.079C157.726 146.966 155.923 150.426 155.125 151.797C154.663 152.591 154.3 153.095 154.091 153.365C153.879 153.64 153.761 153.757 153.757 153.762L-28.1695 -28.1648C-57.8009 1.46662 -81.6187 39.9355 -91.609 83.2268C-101.118 124.435 -101.211 191.609 -48.9612 243.858L132.965 61.9319ZM153.757 153.762C153.752 153.766 153.635 153.884 153.36 154.096C153.09 154.305 152.586 154.668 151.793 155.13C150.421 155.928 146.961 157.731 141.074 159.09C132.475 161.074 95.0384 166.081 61.9272 132.97L243.853 -48.9562C191.604 -101.206 124.43 -101.114 83.2217 -91.6039C39.9304 -81.6136 1.46192 -57.7961 -28.1695 -28.1648L153.757 153.762ZM61.9272 132.97C28.816 99.8587 33.823 62.4222 35.8071 53.8229C37.1659 47.9361 38.9691 44.4761 39.7671 43.1045C40.2288 42.311 40.592 41.8074 40.801 41.5371C41.0133 41.2622 41.131 41.1451 41.1355 41.1406L223.062 223.067C252.693 193.435 276.511 154.967 286.501 111.675C296.011 70.4674 296.103 3.29301 243.853 -48.9562L61.9272 132.97ZM41.1355 41.1406C41.1401 41.1361 41.2575 41.018 41.5323 40.8058C41.8023 40.5968 42.3062 40.2339 43.0997 39.7719C44.471 38.9739 47.9313 37.1706 53.8181 35.8122C62.4175 33.8277 99.8536 28.8207 132.965 61.9319L-48.9612 243.858C3.28835 296.108 70.4626 296.015 111.67 286.506C154.962 276.516 193.43 252.698 223.062 223.067L41.1355 41.1406Z" fill="#FFF970" fill-opacity="0.5"/>
</g>
<mask id="mask14_2223_123" style="mask-type:alpha" maskUnits="userSpaceOnUse" x="32" y="32" width="131" height="131">
<path d="M132.097 62.7972C101.477 32.1762 61.1388 22.8674 42.0007 42.0056C22.8626 61.1436 32.1713 101.481 62.7923 132.102C93.4133 162.723 133.751 172.032 152.889 152.894C172.027 133.756 162.718 93.4182 132.097 62.7972Z" fill="white"/>
</mask>
<g mask="url(#mask14_2223_123)">
<path d="M132.965 132.97C99.8536 166.081 62.4175 161.074 53.8181 159.09C47.9313 157.731 44.471 155.928 43.0997 155.13C42.3062 154.668 41.8026 154.305 41.5323 154.096C41.2575 153.884 41.1401 153.766 41.1355 153.762L223.062 -28.1648C193.43 -57.7961 154.962 -81.6136 111.67 -91.6039C70.4626 -101.114 3.28835 -101.206 -48.9612 -48.9565L132.965 132.97ZM41.1355 153.762C41.131 153.757 41.0133 153.64 40.801 153.365C40.592 153.094 40.2288 152.591 39.7671 151.797C38.9691 150.426 37.1659 146.966 35.8071 141.079C33.823 132.48 28.816 95.0432 61.9272 61.9319L243.853 243.858C296.103 191.609 296.011 124.435 286.501 83.2268C276.511 39.9355 252.693 1.46661 223.062 -28.1648L41.1355 153.762ZM61.9272 61.9319C95.0384 28.8207 132.475 33.8277 141.074 35.8122C146.961 37.1706 150.421 38.9739 151.793 39.7719C152.586 40.2335 153.09 40.5968 153.36 40.8058C153.635 41.018 153.752 41.1361 153.757 41.1406L-28.1695 223.067C1.46193 252.698 39.9304 276.516 83.2217 286.506C124.43 296.015 191.604 296.108 243.853 243.858L61.9272 61.9319ZM153.757 41.1406C153.761 41.1451 153.879 41.2622 154.091 41.5371C154.3 41.8074 154.664 42.311 155.125 43.1045C155.923 44.4758 157.726 47.9361 159.085 53.8229C161.069 62.4222 166.077 99.8587 132.965 132.97L-48.9612 -48.9565C-101.211 3.29305 -101.118 70.4674 -91.609 111.675C-81.6187 154.967 -57.8009 193.435 -28.1695 223.067L153.757 41.1406Z" fill="#70E5FF" fill-opacity="0.5"/>
</g>
<mask id="mask15_2223_123" style="mask-type:alpha" maskUnits="userSpaceOnUse" x="47" y="18" width="99" height="158">
<path d="M47.877 96.8826C47.877 140.187 69.8176 175.293 96.8831 175.293C123.948 175.293 145.889 140.187 145.889 96.8826C145.889 53.5781 123.948 18.4727 96.8831 18.4727C69.8176 18.4727 47.877 53.5781 47.877 96.8826Z" fill="white"/>
</mask>
<g mask="url(#mask15_2223_123)">
<path d="M96.8828 46.6517C143.709 46.6517 166.641 76.6636 171.318 84.1475C174.52 89.2707 175.691 92.9927 176.097 94.5265C176.331 95.4143 176.431 96.0272 176.474 96.3659C176.518 96.7104 176.518 96.8765 176.518 96.883H-80.7646C-80.7646 138.788 -70.4046 182.831 -46.8572 220.507C-24.4432 256.37 22.991 303.934 96.8828 303.934V46.6517ZM176.518 96.883C176.518 96.8894 176.518 97.0556 176.474 97.4001C176.431 97.7391 176.331 98.3517 176.097 99.2398C175.691 100.774 174.52 104.495 171.318 109.618C166.641 117.102 143.709 147.114 96.8828 147.114V-110.168C22.991 -110.168 -24.4432 -62.6035 -46.8572 -26.7408C-70.4046 10.935 -80.7646 54.9778 -80.7646 96.883H176.518ZM96.8828 147.114C50.0563 147.114 27.1253 117.102 22.4479 109.618C19.2459 104.495 18.0743 100.774 17.6688 99.2398C17.4342 98.352 17.3348 97.7391 17.2915 97.4001C17.2474 97.0559 17.2478 96.8894 17.2478 96.883H274.53C274.53 54.9778 264.171 10.9349 240.623 -26.7409C218.209 -62.6035 170.775 -110.168 96.8828 -110.168V147.114ZM17.2478 96.883C17.2478 96.8765 17.2474 96.7104 17.2915 96.3659C17.3348 96.0272 17.4342 95.4143 17.6688 94.5265C18.0743 92.9927 19.2459 89.2707 22.4479 84.1475C27.1253 76.6636 50.0563 46.6517 96.8828 46.6517V303.934C170.775 303.934 218.209 256.369 240.623 220.507C264.171 182.831 274.53 138.788 274.53 96.883H17.2478Z" fill="#B1EAD5" fill-opacity="0.5"/>
</g>
<path d="M335.365 130.23V179.399H318.509C318.432 178.596 318.292 177.794 318.292 176.992C318.292 150.956 318.203 124.933 318.305 98.8976C318.381 79.8515 326.681 65.4521 344.265 57.737C372.63 45.2982 404.7 61.8492 408.2 92.9011C411.575 122.896 389.117 145.406 358.765 142.21C351.036 141.395 345.513 138.403 335.365 130.23ZM391.371 98.2482C391.459 82.4486 379.326 69.9844 363.755 69.8953C347.817 69.8063 335.555 82.0537 335.378 98.2482C335.213 113.577 347.665 126.334 362.93 126.512C378.817 126.69 391.268 114.302 391.371 98.2482Z" fill="white"/>
<path d="M623.632 140.273H607.538V126.803C604.051 129.986 600.996 133.729 597.125 136.173C574.883 150.241 546.403 140.311 536.448 115.256C525.051 86.5713 544.2 56.1307 574.996 53.8516C601.071 51.9291 623.48 69.8552 623.809 98.6281C623.964 111.843 623.835 125.058 623.835 138.274C623.835 138.885 623.722 139.496 623.645 140.26L623.632 140.273ZM578.561 69.7658C562.967 69.7278 550.248 82.1026 550.413 97.9787C550.58 113.74 562.1 126.281 578.474 126.319C594.503 126.357 606.596 114.224 606.558 98.0807C606.535 81.7591 594.361 69.8042 578.561 69.7787V69.7658Z" fill="white"/>
<path d="M242.273 116.415C243.19 117.701 243.903 118.86 244.768 119.891C251.567 128.141 265.457 130.585 274.827 125.289C278.481 123.227 280.429 120.235 280.289 116.008C280.149 111.908 277.475 109.553 274.013 108.484C267.265 106.396 260.339 104.868 253.553 102.869C249.81 101.762 246.067 100.476 242.591 98.7442C228.383 91.6529 228.879 71.7916 238.695 63.0196C249.403 53.4584 261.905 52.1854 275.26 55.6864C283.93 57.9525 290.614 62.9306 295.096 71.0022C290.754 73.4596 286.54 75.8532 282.339 78.2338C274.573 68.2142 263.051 65.4896 253.527 71.2951C247.187 75.1654 246.984 83.4409 253.68 86.4583C259.486 89.0683 265.979 90.1377 272.09 92.1364C277.284 93.8425 282.581 95.4593 287.457 97.9038C299.501 103.939 299.883 121.406 292.638 130.229C286.604 137.575 278.672 141.127 269.544 142.031C257.385 143.228 245.761 141.649 236.416 132.75C233.705 130.165 231.617 126.932 229.032 123.762C233.73 121.164 237.944 118.822 242.26 116.428L242.273 116.415Z" fill="white"/>
<path d="M693.371 123.483C697.639 121.115 701.865 118.785 706.294 116.328C709.326 122.121 713.742 126.08 720.071 127.277C726.855 128.563 733.668 128.678 739.639 124.514C746.323 119.855 745.762 111.783 738.239 108.753C732.407 106.398 726.055 105.366 719.994 103.546C715.449 102.183 710.778 100.936 706.549 98.8605C694.391 92.8766 693.475 79.2031 697.484 70.1892C700.897 62.5121 707.123 57.9673 715.029 55.7902C728.575 52.0598 741.294 53.6131 752.346 62.8689C754.891 64.995 756.775 67.8976 759.22 70.7495C754.523 73.4231 750.242 75.8547 745.991 78.2611C738.771 68.394 726.829 65.4914 717.475 71.106C714.162 73.0921 712.494 75.944 712.494 79.7124C712.494 83.3792 714.839 85.7089 717.92 86.8421C722.858 88.6498 728.004 89.9356 733.055 91.4382C737.907 92.8895 742.884 94.0479 747.597 95.856C764.846 102.502 765.216 124.565 751.975 134.636C742.3 141.995 731.387 143.331 719.752 141.727C708.471 140.161 699.662 134.89 693.971 124.845C693.768 124.489 693.626 124.081 693.358 123.47L693.371 123.483Z" fill="white"/>
<path d="M652.174 16.8555H668.916V140.185H652.174V16.8555Z" fill="white"/>
<path d="M493.862 140.26H477.133C477.055 139.395 476.904 138.491 476.904 137.587C476.891 120.972 476.826 104.37 476.904 87.7559C476.991 72.4146 484.797 60.7143 498.152 55.9656C506.517 52.9862 514.981 53.432 523.423 55.9272C525.459 56.5256 526.223 57.595 526.123 59.8104C525.92 64.3427 526.059 68.8753 526.059 73.0766C521.652 72.1853 517.4 70.823 513.071 70.543C502.481 69.8556 494.942 76.5775 494.268 87.1956C493.836 94.0453 493.91 100.933 493.862 107.808C493.797 117.433 493.849 127.058 493.849 136.683V140.26H493.862Z" fill="white"/>
<path d="M431.703 55.6992H448.368V140.223H431.703V55.6992Z" fill="white"/>
<path d="M439.99 38.7412C433.777 38.7157 428.722 33.5847 428.8 27.3591C428.877 21.3881 433.993 16.2191 439.938 16.13C445.909 16.0409 451.132 21.4517 451.067 27.6392C451.003 33.8395 446.103 38.7537 439.99 38.7283V38.7412Z" fill="white"/>
</g>
<defs>
<clipPath id="clip0_2223_123">
<rect width="761.29" height="200" fill="white"/>
</clipPath>
</defs>
</svg>
